<svg width="49" height="54" viewBox="0 0 49 54" fill="none" xmlns="http://www.w3.org/2000/svg">
<rect width="49" height="54" rx="8" fill="url(#paint0_linear)" fill-opacity="0.5"/>
<path d="M24.2395 16.1667H20.5937C20.0172 16.1667 19.4609 16.3877 19.0312 16.7874C18.6015 17.1871 18.3286 17.7375 18.2645 18.3333H16.427C15.8054 18.3333 15.2093 18.5901 14.7697 19.0473C14.3302 19.5044 14.0833 20.1244 14.0833 20.7708V35.3958C14.0833 36.0423 14.3302 36.6623 14.7697 37.1194C15.2093 37.5765 15.8054 37.8333 16.427 37.8333H25.3437C24.1319 36.5236 23.456 34.7759 23.4583 32.9583C23.4583 31.6096 23.8228 30.3497 24.4551 29.2793L21.927 31.9075C21.7805 32.0596 21.582 32.1451 21.3749 32.1451C21.1679 32.1451 20.9693 32.0596 20.8228 31.9075L18.2187 29.1992C18.1419 29.1248 18.0803 29.0351 18.0376 28.9354C17.9949 28.8357 17.972 28.7282 17.9701 28.6191C17.9683 28.51 17.9876 28.4016 18.0269 28.3004C18.0662 28.1993 18.1247 28.1074 18.1988 28.0302C18.273 27.953 18.3614 27.8922 18.4587 27.8514C18.556 27.8105 18.6601 27.7904 18.765 27.7923C18.8699 27.7943 18.9734 27.8182 19.0692 27.8626C19.1651 27.907 19.2513 27.971 19.3228 28.0508L21.3749 30.185L26.552 24.8008C26.6235 24.721 26.7098 24.657 26.8056 24.6126C26.9014 24.5682 27.0049 24.5443 27.1098 24.5423C27.2147 24.5404 27.3189 24.5605 27.4162 24.6014C27.5134 24.6422 27.6018 24.703 27.676 24.7802C27.7502 24.8574 27.8087 24.9493 27.848 25.0504C27.8873 25.1516 27.9066 25.26 27.9047 25.3691C27.9029 25.4782 27.8799 25.5857 27.8372 25.6854C27.7945 25.7851 27.7329 25.8748 27.6562 25.9492L26.6916 26.9534C27.9067 26.1762 29.3277 25.82 30.7499 25.9362V20.7708C30.7499 20.1244 30.503 19.5044 30.0634 19.0473C29.6239 18.5901 29.0278 18.3333 28.4062 18.3333H26.5687C26.5046 17.7375 26.2316 17.1871 25.802 16.7874C25.3723 16.3877 24.816 16.1667 24.2395 16.1667ZM20.5937 17.7917H24.2395C24.4467 17.7917 24.6454 17.8773 24.7919 18.0296C24.9384 18.182 25.0208 18.3887 25.0208 18.6042C25.0208 18.8196 24.9384 19.0263 24.7919 19.1787C24.6454 19.3311 24.4467 19.4167 24.2395 19.4167H20.5937C20.3865 19.4167 20.1878 19.3311 20.0412 19.1787C19.8947 19.0263 19.8124 18.8196 19.8124 18.6042C19.8124 18.3887 19.8947 18.182 20.0412 18.0296C20.1878 17.8773 20.3865 17.7917 20.5937 17.7917ZM35.9583 32.9583C35.9583 31.3781 35.3546 29.8625 34.2802 28.7451C33.2058 27.6277 31.7486 27 30.2291 27C28.7096 27 27.2524 27.6277 26.178 28.7451C25.1035 29.8625 24.4999 31.3781 24.4999 32.9583C24.4999 34.5386 25.1035 36.0541 26.178 37.1715C27.2524 38.2889 28.7096 38.9167 30.2291 38.9167C31.7486 38.9167 33.2058 38.2889 34.2802 37.1715C35.3546 36.0541 35.9583 34.5386 35.9583 32.9583ZM30.7499 33.5L30.751 36.2116C30.751 36.3552 30.6961 36.493 30.5984 36.5946C30.5007 36.6962 30.3683 36.7532 30.2301 36.7532C30.092 36.7532 29.9595 36.6962 29.8618 36.5946C29.7642 36.493 29.7093 36.3552 29.7093 36.2116V33.5H27.0999C26.9618 33.5 26.8293 33.4429 26.7316 33.3413C26.634 33.2398 26.5791 33.102 26.5791 32.9583C26.5791 32.8147 26.634 32.6769 26.7316 32.5753C26.8293 32.4737 26.9618 32.4167 27.0999 32.4167H29.7083V29.7083C29.7083 29.5647 29.7631 29.4269 29.8608 29.3253C29.9585 29.2237 30.091 29.1667 30.2291 29.1667C30.3672 29.1667 30.4997 29.2237 30.5974 29.3253C30.695 29.4269 30.7499 29.5647 30.7499 29.7083V32.4167H33.351C33.4891 32.4167 33.6216 32.4737 33.7192 32.5753C33.8169 32.6769 33.8718 32.8147 33.8718 32.9583C33.8718 33.102 33.8169 33.2398 33.7192 33.3413C33.6216 33.4429 33.4891 33.5 33.351 33.5H30.7499Z" fill="url(#paint1_linear)"/>
<defs>
<linearGradient id="paint0_linear" x1="0" y1="0" x2="49.7966" y2="58.7245" gradientUnits="userSpaceOnUse">
<stop stop-color="white"/>
<stop offset="1" stop-color="white" stop-opacity="0.35"/>
</linearGradient>
<linearGradient id="paint1_linear" x1="25.0208" y1="16.1667" x2="25.0208" y2="38.9167" gradientUnits="userSpaceOnUse">
<stop stop-color="white"/>
<stop offset="1" stop-color="white"/>
</linearGradient>
</defs>
</svg>
