<svg width="29" height="29" viewBox="0 0 29 29" fill="none" xmlns="http://www.w3.org/2000/svg">
<g clip-path="url(#clip0)">
<g filter="url(#filter0_bd)">
<path d="M25.9067 12.9533L7.20167 3.60083C6.94933 3.48392 6.67176 3.43198 6.39422 3.44974C6.11668 3.46749 5.84798 3.55439 5.6126 3.7025C5.37722 3.85062 5.18262 4.05525 5.04651 4.29778C4.91041 4.54031 4.83713 4.81303 4.83334 5.09111V23.7881C4.83098 24.0735 4.9023 24.3547 5.04041 24.6046C5.17851 24.8544 5.37873 25.0644 5.6217 25.2142C5.86468 25.3641 6.1422 25.4487 6.42744 25.4599C6.71268 25.4711 6.996 25.4086 7.25001 25.2783L25.9067 15.9258C26.183 15.7871 26.4154 15.5743 26.5777 15.3111C26.7401 15.0479 26.8261 14.7448 26.8261 14.4356C26.8261 14.1263 26.7401 13.8232 26.5777 13.56C26.4154 13.2968 26.183 13.084 25.9067 12.9453V12.9533Z" fill="url(#paint0_linear)" shape-rendering="crispEdges"/>
</g>
</g>
<defs>
<filter id="filter0_bd" x="-45.1667" y="-46.5537" width="121.993" height="122.015" filterUnits="userSpaceOnUse" color-interpolation-filters="sRGB">
<feFlood flood-opacity="0" result="BackgroundImageFix"/>
<feGaussianBlur in="BackgroundImage" stdDeviation="25"/>
<feComposite in2="SourceAlpha" operator="in" result="effect1_backgroundBlur"/>
<feColorMatrix in="SourceAlpha" type="matrix" values="0 0 0 0 0 0 0 0 0 0 0 0 0 0 0 0 0 0 127 0" result="hardAlpha"/>
<feOffset dy="4"/>
<feGaussianBlur stdDeviation="6"/>
<feComposite in2="hardAlpha" operator="out"/>
<feColorMatrix type="matrix" values="0 0 0 0 1 0 0 0 0 1 0 0 0 0 1 0 0 0 0.25 0"/>
<feBlend mode="normal" in2="effect1_backgroundBlur" result="effect2_dropShadow"/>
<feBlend mode="normal" in="SourceGraphic" in2="effect2_dropShadow" result="shape"/>
</filter>
<linearGradient id="paint0_linear" x1="5.00001" y1="3.5" x2="27" y2="25.5" gradientUnits="userSpaceOnUse">
<stop offset="0.0001" stop-color="white" stop-opacity="0.97"/>
<stop offset="1" stop-color="white" stop-opacity="0.43"/>
</linearGradient>
<clipPath id="clip0">
<rect width="29" height="29" fill="white"/>
</clipPath>
</defs>
</svg>
