<svg width="26" height="22" viewBox="0 0 26 22" fill="none" xmlns="http://www.w3.org/2000/svg">
<g clip-path="url(#clip0)">
<path d="M18.1729 3.57659L22.2444 7.45237C22.416 7.61565 22.416 7.88206 22.2444 8.04534L12.3861 17.4297L8.19722 17.8723C7.6375 17.9325 7.16354 17.4813 7.22674 16.9485L7.69167 12.961L17.55 3.57659C17.7215 3.41331 18.0014 3.41331 18.1729 3.57659ZM25.4854 2.59261L23.2826 0.495734C22.5965 -0.157391 21.4816 -0.157391 20.791 0.495734L19.1931 2.01683C19.0215 2.18011 19.0215 2.44651 19.1931 2.6098L23.2646 6.48558C23.4361 6.64886 23.716 6.64886 23.8875 6.48558L25.4854 4.96448C26.1715 4.30706 26.1715 3.24573 25.4854 2.59261ZM17.3333 14.8774V19.2516H2.88889V5.50159H13.2618C13.4062 5.50159 13.5417 5.44573 13.6455 5.3512L15.451 3.63245C15.7941 3.30589 15.5503 2.75159 15.0674 2.75159H2.16667C0.970486 2.75159 0 3.67542 0 4.81409V19.9391C0 21.0778 0.970486 22.0016 2.16667 22.0016H18.0556C19.2517 22.0016 20.2222 21.0778 20.2222 19.9391V13.1586C20.2222 12.6989 19.6399 12.4711 19.2969 12.7934L17.4913 14.5121C17.392 14.611 17.3333 14.7399 17.3333 14.8774Z" fill="url(#paint0_linear)"/>
</g>
<defs>
<linearGradient id="paint0_linear" x1="13" y1="0.00588989" x2="13" y2="22.0016" gradientUnits="userSpaceOnUse">
<stop stop-color="white"/>
<stop offset="1" stop-color="white" stop-opacity="0.38"/>
</linearGradient>
<clipPath id="clip0">
<rect width="26" height="22" fill="white"/>
</clipPath>
</defs>
</svg>
